<mxfile host="app.diagrams.net" modified="2023-11-23T02:33:30.786Z" agent="Mozilla/5.0 (Windows NT 10.0; Win64; x64) AppleWebKit/537.36 (KHTML, like Gecko) Chrome/119.0.0.0 Safari/537.36 Edg/119.0.0.0" version="22.1.3" etag="YqvFqUVf-M1qXJd1ZFUQ" type="github">
  <diagram name="Page-1" id="QjHiKHDhyBp0tl-G_yI4">
    <mxGraphModel>
      <root>
        <mxCell id="0" />
        <mxCell id="1" parent="0" />
      </root>
    </mxGraphModel>
  </diagram>
</mxfile>
